<mxfile host="app.diagrams.net" agent="Mozilla/5.0 (Windows NT 10.0; Win64; x64) AppleWebKit/537.36 (KHTML, like Gecko) Chrome/134.0.0.0 Safari/537.36" version="25.0.3">
  <diagram name="Página-1" id="SU-CC8njb6bF-z--vzrw">
    <mxGraphModel dx="1195" dy="615" grid="1" gridSize="10" guides="1" tooltips="1" connect="1" arrows="1" fold="1" page="1" pageScale="1" pageWidth="827" pageHeight="1169" math="0" shadow="0">
      <root>
        <mxCell id="0" />
        <mxCell id="1" parent="0" />
        <mxCell id="JSn8sYVrOnnWVGVblJAj-2" value="Usuarios" style="rounded=0;whiteSpace=wrap;html=1;" parent="1" vertex="1">
          <mxGeometry x="160" y="170" width="80" height="20" as="geometry" />
        </mxCell>
        <mxCell id="JSn8sYVrOnnWVGVblJAj-21" style="edgeStyle=orthogonalEdgeStyle;rounded=0;orthogonalLoop=1;jettySize=auto;html=1;" parent="1" source="JSn8sYVrOnnWVGVblJAj-7" edge="1">
          <mxGeometry relative="1" as="geometry">
            <mxPoint x="160" y="170" as="targetPoint" />
          </mxGeometry>
        </mxCell>
        <mxCell id="JSn8sYVrOnnWVGVblJAj-7" value="Nome" style="ellipse;whiteSpace=wrap;html=1;" parent="1" vertex="1">
          <mxGeometry x="40" y="90" width="90" height="20" as="geometry" />
        </mxCell>
        <mxCell id="JSn8sYVrOnnWVGVblJAj-20" style="edgeStyle=orthogonalEdgeStyle;rounded=0;orthogonalLoop=1;jettySize=auto;html=1;entryX=0;entryY=0;entryDx=0;entryDy=0;" parent="1" source="JSn8sYVrOnnWVGVblJAj-12" target="JSn8sYVrOnnWVGVblJAj-2" edge="1">
          <mxGeometry relative="1" as="geometry" />
        </mxCell>
        <mxCell id="JSn8sYVrOnnWVGVblJAj-12" value="Email" style="ellipse;whiteSpace=wrap;html=1;" parent="1" vertex="1">
          <mxGeometry x="40" y="130" width="90" height="20" as="geometry" />
        </mxCell>
        <mxCell id="JSn8sYVrOnnWVGVblJAj-18" style="edgeStyle=orthogonalEdgeStyle;rounded=0;orthogonalLoop=1;jettySize=auto;html=1;entryX=0;entryY=0.5;entryDx=0;entryDy=0;" parent="1" source="JSn8sYVrOnnWVGVblJAj-13" target="JSn8sYVrOnnWVGVblJAj-2" edge="1">
          <mxGeometry relative="1" as="geometry" />
        </mxCell>
        <mxCell id="JSn8sYVrOnnWVGVblJAj-13" value="Senha" style="ellipse;whiteSpace=wrap;html=1;" parent="1" vertex="1">
          <mxGeometry x="40" y="170" width="90" height="20" as="geometry" />
        </mxCell>
        <mxCell id="JSn8sYVrOnnWVGVblJAj-17" style="edgeStyle=orthogonalEdgeStyle;rounded=0;orthogonalLoop=1;jettySize=auto;html=1;" parent="1" source="JSn8sYVrOnnWVGVblJAj-14" edge="1">
          <mxGeometry relative="1" as="geometry">
            <mxPoint x="160" y="190" as="targetPoint" />
          </mxGeometry>
        </mxCell>
        <mxCell id="JSn8sYVrOnnWVGVblJAj-14" value="Telefone" style="ellipse;whiteSpace=wrap;html=1;" parent="1" vertex="1">
          <mxGeometry x="40" y="210" width="90" height="20" as="geometry" />
        </mxCell>
        <mxCell id="JSn8sYVrOnnWVGVblJAj-16" style="edgeStyle=orthogonalEdgeStyle;rounded=0;orthogonalLoop=1;jettySize=auto;html=1;entryX=0;entryY=1;entryDx=0;entryDy=0;" parent="1" source="JSn8sYVrOnnWVGVblJAj-15" target="JSn8sYVrOnnWVGVblJAj-2" edge="1">
          <mxGeometry relative="1" as="geometry" />
        </mxCell>
        <mxCell id="JSn8sYVrOnnWVGVblJAj-15" value="Data_cadastro" style="ellipse;whiteSpace=wrap;html=1;" parent="1" vertex="1">
          <mxGeometry x="40" y="250" width="90" height="20" as="geometry" />
        </mxCell>
        <mxCell id="JSn8sYVrOnnWVGVblJAj-23" value="Quadras" style="rounded=0;whiteSpace=wrap;html=1;" parent="1" vertex="1">
          <mxGeometry x="160" y="410" width="80" height="20" as="geometry" />
        </mxCell>
        <mxCell id="JSn8sYVrOnnWVGVblJAj-24" style="edgeStyle=orthogonalEdgeStyle;rounded=0;orthogonalLoop=1;jettySize=auto;html=1;" parent="1" source="JSn8sYVrOnnWVGVblJAj-25" edge="1">
          <mxGeometry relative="1" as="geometry">
            <mxPoint x="160" y="410" as="targetPoint" />
          </mxGeometry>
        </mxCell>
        <mxCell id="JSn8sYVrOnnWVGVblJAj-25" value="Nome" style="ellipse;whiteSpace=wrap;html=1;" parent="1" vertex="1">
          <mxGeometry x="40" y="330" width="90" height="20" as="geometry" />
        </mxCell>
        <mxCell id="JSn8sYVrOnnWVGVblJAj-26" style="edgeStyle=orthogonalEdgeStyle;rounded=0;orthogonalLoop=1;jettySize=auto;html=1;entryX=0;entryY=0;entryDx=0;entryDy=0;" parent="1" source="JSn8sYVrOnnWVGVblJAj-27" target="JSn8sYVrOnnWVGVblJAj-23" edge="1">
          <mxGeometry relative="1" as="geometry" />
        </mxCell>
        <mxCell id="JSn8sYVrOnnWVGVblJAj-27" value="Tipo" style="ellipse;whiteSpace=wrap;html=1;" parent="1" vertex="1">
          <mxGeometry x="40" y="370" width="90" height="20" as="geometry" />
        </mxCell>
        <mxCell id="JSn8sYVrOnnWVGVblJAj-28" style="edgeStyle=orthogonalEdgeStyle;rounded=0;orthogonalLoop=1;jettySize=auto;html=1;entryX=0;entryY=0.5;entryDx=0;entryDy=0;" parent="1" source="JSn8sYVrOnnWVGVblJAj-29" target="JSn8sYVrOnnWVGVblJAj-23" edge="1">
          <mxGeometry relative="1" as="geometry" />
        </mxCell>
        <mxCell id="JSn8sYVrOnnWVGVblJAj-29" value="Localização" style="ellipse;whiteSpace=wrap;html=1;" parent="1" vertex="1">
          <mxGeometry x="40" y="410" width="90" height="20" as="geometry" />
        </mxCell>
        <mxCell id="JSn8sYVrOnnWVGVblJAj-30" style="edgeStyle=orthogonalEdgeStyle;rounded=0;orthogonalLoop=1;jettySize=auto;html=1;" parent="1" source="JSn8sYVrOnnWVGVblJAj-31" edge="1">
          <mxGeometry relative="1" as="geometry">
            <mxPoint x="160" y="430" as="targetPoint" />
          </mxGeometry>
        </mxCell>
        <mxCell id="JSn8sYVrOnnWVGVblJAj-31" value="Status" style="ellipse;whiteSpace=wrap;html=1;" parent="1" vertex="1">
          <mxGeometry x="40" y="450" width="90" height="20" as="geometry" />
        </mxCell>
        <mxCell id="JSn8sYVrOnnWVGVblJAj-32" style="edgeStyle=orthogonalEdgeStyle;rounded=0;orthogonalLoop=1;jettySize=auto;html=1;entryX=0;entryY=1;entryDx=0;entryDy=0;" parent="1" source="JSn8sYVrOnnWVGVblJAj-33" target="JSn8sYVrOnnWVGVblJAj-23" edge="1">
          <mxGeometry relative="1" as="geometry" />
        </mxCell>
        <mxCell id="JSn8sYVrOnnWVGVblJAj-33" value="Preço" style="ellipse;whiteSpace=wrap;html=1;" parent="1" vertex="1">
          <mxGeometry x="40" y="490" width="90" height="20" as="geometry" />
        </mxCell>
        <mxCell id="JSn8sYVrOnnWVGVblJAj-34" value="Reservas" style="rounded=0;whiteSpace=wrap;html=1;" parent="1" vertex="1">
          <mxGeometry x="490" y="170" width="80" height="20" as="geometry" />
        </mxCell>
        <mxCell id="JSn8sYVrOnnWVGVblJAj-36" value="ID_usuario" style="ellipse;whiteSpace=wrap;html=1;" parent="1" vertex="1">
          <mxGeometry x="600" y="90" width="90" height="20" as="geometry" />
        </mxCell>
        <mxCell id="JSn8sYVrOnnWVGVblJAj-46" style="edgeStyle=orthogonalEdgeStyle;rounded=0;orthogonalLoop=1;jettySize=auto;html=1;entryX=0.75;entryY=0;entryDx=0;entryDy=0;" parent="1" source="JSn8sYVrOnnWVGVblJAj-38" target="JSn8sYVrOnnWVGVblJAj-34" edge="1">
          <mxGeometry relative="1" as="geometry" />
        </mxCell>
        <mxCell id="JSn8sYVrOnnWVGVblJAj-38" value="ID_quadra" style="ellipse;whiteSpace=wrap;html=1;" parent="1" vertex="1">
          <mxGeometry x="600" y="130" width="90" height="20" as="geometry" />
        </mxCell>
        <mxCell id="JSn8sYVrOnnWVGVblJAj-47" style="edgeStyle=orthogonalEdgeStyle;rounded=0;orthogonalLoop=1;jettySize=auto;html=1;" parent="1" target="JSn8sYVrOnnWVGVblJAj-34" edge="1">
          <mxGeometry relative="1" as="geometry">
            <mxPoint x="600" y="180" as="sourcePoint" />
          </mxGeometry>
        </mxCell>
        <mxCell id="JSn8sYVrOnnWVGVblJAj-50" style="edgeStyle=orthogonalEdgeStyle;rounded=0;orthogonalLoop=1;jettySize=auto;html=1;entryX=0.75;entryY=1;entryDx=0;entryDy=0;" parent="1" source="JSn8sYVrOnnWVGVblJAj-42" target="JSn8sYVrOnnWVGVblJAj-34" edge="1">
          <mxGeometry relative="1" as="geometry" />
        </mxCell>
        <mxCell id="JSn8sYVrOnnWVGVblJAj-42" value="Data_reserva" style="ellipse;whiteSpace=wrap;html=1;" parent="1" vertex="1">
          <mxGeometry x="600" y="210" width="90" height="20" as="geometry" />
        </mxCell>
        <mxCell id="JSn8sYVrOnnWVGVblJAj-44" value="Hora_inicio" style="ellipse;whiteSpace=wrap;html=1;" parent="1" vertex="1">
          <mxGeometry x="600" y="250" width="90" height="20" as="geometry" />
        </mxCell>
        <mxCell id="JSn8sYVrOnnWVGVblJAj-45" style="edgeStyle=orthogonalEdgeStyle;rounded=0;orthogonalLoop=1;jettySize=auto;html=1;entryX=0.595;entryY=0.057;entryDx=0;entryDy=0;entryPerimeter=0;" parent="1" source="JSn8sYVrOnnWVGVblJAj-36" target="JSn8sYVrOnnWVGVblJAj-34" edge="1">
          <mxGeometry relative="1" as="geometry" />
        </mxCell>
        <mxCell id="JSn8sYVrOnnWVGVblJAj-49" style="edgeStyle=orthogonalEdgeStyle;rounded=0;orthogonalLoop=1;jettySize=auto;html=1;entryX=0.588;entryY=1.143;entryDx=0;entryDy=0;entryPerimeter=0;" parent="1" source="JSn8sYVrOnnWVGVblJAj-44" target="JSn8sYVrOnnWVGVblJAj-34" edge="1">
          <mxGeometry relative="1" as="geometry" />
        </mxCell>
        <mxCell id="JSn8sYVrOnnWVGVblJAj-51" value="Hora_fim" style="ellipse;whiteSpace=wrap;html=1;" parent="1" vertex="1">
          <mxGeometry x="600" y="290" width="90" height="20" as="geometry" />
        </mxCell>
        <mxCell id="JSn8sYVrOnnWVGVblJAj-52" style="edgeStyle=orthogonalEdgeStyle;rounded=0;orthogonalLoop=1;jettySize=auto;html=1;entryX=0.352;entryY=1.143;entryDx=0;entryDy=0;entryPerimeter=0;" parent="1" source="JSn8sYVrOnnWVGVblJAj-51" target="JSn8sYVrOnnWVGVblJAj-34" edge="1">
          <mxGeometry relative="1" as="geometry" />
        </mxCell>
        <mxCell id="JSn8sYVrOnnWVGVblJAj-53" value="Status" style="ellipse;whiteSpace=wrap;html=1;" parent="1" vertex="1">
          <mxGeometry x="600" y="170" width="90" height="20" as="geometry" />
        </mxCell>
        <mxCell id="JSn8sYVrOnnWVGVblJAj-55" value="Horarios" style="rounded=0;whiteSpace=wrap;html=1;" parent="1" vertex="1">
          <mxGeometry x="490" y="410" width="80" height="20" as="geometry" />
        </mxCell>
        <mxCell id="JSn8sYVrOnnWVGVblJAj-58" value="ID_quadra" style="ellipse;whiteSpace=wrap;html=1;" parent="1" vertex="1">
          <mxGeometry x="600" y="450" width="90" height="20" as="geometry" />
        </mxCell>
        <mxCell id="JSn8sYVrOnnWVGVblJAj-59" style="edgeStyle=orthogonalEdgeStyle;rounded=0;orthogonalLoop=1;jettySize=auto;html=1;" parent="1" target="JSn8sYVrOnnWVGVblJAj-55" edge="1">
          <mxGeometry relative="1" as="geometry">
            <mxPoint x="600" y="420" as="sourcePoint" />
          </mxGeometry>
        </mxCell>
        <mxCell id="JSn8sYVrOnnWVGVblJAj-60" style="edgeStyle=orthogonalEdgeStyle;rounded=0;orthogonalLoop=1;jettySize=auto;html=1;entryX=0.75;entryY=1;entryDx=0;entryDy=0;" parent="1" target="JSn8sYVrOnnWVGVblJAj-55" edge="1">
          <mxGeometry relative="1" as="geometry">
            <mxPoint x="600" y="460" as="sourcePoint" />
          </mxGeometry>
        </mxCell>
        <mxCell id="JSn8sYVrOnnWVGVblJAj-62" value="Hora_inicio" style="ellipse;whiteSpace=wrap;html=1;" parent="1" vertex="1">
          <mxGeometry x="600" y="490" width="90" height="20" as="geometry" />
        </mxCell>
        <mxCell id="JSn8sYVrOnnWVGVblJAj-64" style="edgeStyle=orthogonalEdgeStyle;rounded=0;orthogonalLoop=1;jettySize=auto;html=1;entryX=0.588;entryY=1.143;entryDx=0;entryDy=0;entryPerimeter=0;" parent="1" source="JSn8sYVrOnnWVGVblJAj-62" target="JSn8sYVrOnnWVGVblJAj-55" edge="1">
          <mxGeometry relative="1" as="geometry" />
        </mxCell>
        <mxCell id="JSn8sYVrOnnWVGVblJAj-65" value="Hora_fim" style="ellipse;whiteSpace=wrap;html=1;" parent="1" vertex="1">
          <mxGeometry x="600" y="530" width="90" height="20" as="geometry" />
        </mxCell>
        <mxCell id="JSn8sYVrOnnWVGVblJAj-66" style="edgeStyle=orthogonalEdgeStyle;rounded=0;orthogonalLoop=1;jettySize=auto;html=1;entryX=0.352;entryY=1.143;entryDx=0;entryDy=0;entryPerimeter=0;" parent="1" source="JSn8sYVrOnnWVGVblJAj-65" target="JSn8sYVrOnnWVGVblJAj-55" edge="1">
          <mxGeometry relative="1" as="geometry" />
        </mxCell>
        <mxCell id="JSn8sYVrOnnWVGVblJAj-67" value="Dia_semana" style="ellipse;whiteSpace=wrap;html=1;" parent="1" vertex="1">
          <mxGeometry x="600" y="410" width="90" height="20" as="geometry" />
        </mxCell>
        <mxCell id="JSn8sYVrOnnWVGVblJAj-69" value="Pagamento" style="rounded=0;whiteSpace=wrap;html=1;" parent="1" vertex="1">
          <mxGeometry x="325" y="50" width="80" height="20" as="geometry" />
        </mxCell>
        <mxCell id="JSn8sYVrOnnWVGVblJAj-71" style="edgeStyle=orthogonalEdgeStyle;rounded=0;orthogonalLoop=1;jettySize=auto;html=1;entryX=0.75;entryY=0;entryDx=0;entryDy=0;" parent="1" source="JSn8sYVrOnnWVGVblJAj-70" target="JSn8sYVrOnnWVGVblJAj-55" edge="1">
          <mxGeometry relative="1" as="geometry" />
        </mxCell>
        <mxCell id="JSn8sYVrOnnWVGVblJAj-70" value="Data" style="ellipse;whiteSpace=wrap;html=1;" parent="1" vertex="1">
          <mxGeometry x="600" y="370" width="90" height="20" as="geometry" />
        </mxCell>
        <mxCell id="JSn8sYVrOnnWVGVblJAj-78" style="edgeStyle=orthogonalEdgeStyle;rounded=0;orthogonalLoop=1;jettySize=auto;html=1;entryX=0;entryY=0;entryDx=0;entryDy=0;" parent="1" source="JSn8sYVrOnnWVGVblJAj-72" target="JSn8sYVrOnnWVGVblJAj-69" edge="1">
          <mxGeometry relative="1" as="geometry">
            <mxPoint x="290" y="50" as="targetPoint" />
          </mxGeometry>
        </mxCell>
        <mxCell id="JSn8sYVrOnnWVGVblJAj-72" value="Valor" style="ellipse;whiteSpace=wrap;html=1;" parent="1" vertex="1">
          <mxGeometry x="210" y="10" width="90" height="20" as="geometry" />
        </mxCell>
        <mxCell id="JSn8sYVrOnnWVGVblJAj-77" style="edgeStyle=orthogonalEdgeStyle;rounded=0;orthogonalLoop=1;jettySize=auto;html=1;entryX=0.5;entryY=0;entryDx=0;entryDy=0;" parent="1" source="JSn8sYVrOnnWVGVblJAj-73" target="JSn8sYVrOnnWVGVblJAj-69" edge="1">
          <mxGeometry relative="1" as="geometry" />
        </mxCell>
        <mxCell id="JSn8sYVrOnnWVGVblJAj-73" value="ID_reserva" style="ellipse;whiteSpace=wrap;html=1;" parent="1" vertex="1">
          <mxGeometry x="320" width="90" height="20" as="geometry" />
        </mxCell>
        <mxCell id="JSn8sYVrOnnWVGVblJAj-81" style="edgeStyle=orthogonalEdgeStyle;rounded=0;orthogonalLoop=1;jettySize=auto;html=1;entryX=1;entryY=0;entryDx=0;entryDy=0;" parent="1" source="JSn8sYVrOnnWVGVblJAj-74" target="JSn8sYVrOnnWVGVblJAj-69" edge="1">
          <mxGeometry relative="1" as="geometry" />
        </mxCell>
        <mxCell id="JSn8sYVrOnnWVGVblJAj-74" value="Data_pagamento" style="ellipse;whiteSpace=wrap;html=1;" parent="1" vertex="1">
          <mxGeometry x="430" y="10" width="110" height="20" as="geometry" />
        </mxCell>
        <mxCell id="JSn8sYVrOnnWVGVblJAj-80" style="edgeStyle=orthogonalEdgeStyle;rounded=0;orthogonalLoop=1;jettySize=auto;html=1;entryX=1;entryY=1;entryDx=0;entryDy=0;" parent="1" source="JSn8sYVrOnnWVGVblJAj-75" target="JSn8sYVrOnnWVGVblJAj-69" edge="1">
          <mxGeometry relative="1" as="geometry" />
        </mxCell>
        <mxCell id="JSn8sYVrOnnWVGVblJAj-75" value="Met_pagamento" style="ellipse;whiteSpace=wrap;html=1;" parent="1" vertex="1">
          <mxGeometry x="450" y="60" width="100" height="20" as="geometry" />
        </mxCell>
        <mxCell id="JSn8sYVrOnnWVGVblJAj-79" style="edgeStyle=orthogonalEdgeStyle;rounded=0;orthogonalLoop=1;jettySize=auto;html=1;entryX=0;entryY=1;entryDx=0;entryDy=0;" parent="1" source="JSn8sYVrOnnWVGVblJAj-76" target="JSn8sYVrOnnWVGVblJAj-69" edge="1">
          <mxGeometry relative="1" as="geometry" />
        </mxCell>
        <mxCell id="JSn8sYVrOnnWVGVblJAj-76" value="Status" style="ellipse;whiteSpace=wrap;html=1;" parent="1" vertex="1">
          <mxGeometry x="190" y="60" width="90" height="20" as="geometry" />
        </mxCell>
        <mxCell id="JSn8sYVrOnnWVGVblJAj-82" value="" style="endArrow=none;html=1;rounded=0;" parent="1" edge="1">
          <mxGeometry width="50" height="50" relative="1" as="geometry">
            <mxPoint x="290" y="180" as="sourcePoint" />
            <mxPoint x="440" y="181" as="targetPoint" />
          </mxGeometry>
        </mxCell>
        <mxCell id="JSn8sYVrOnnWVGVblJAj-83" value="" style="endArrow=none;html=1;rounded=0;" parent="1" source="JSn8sYVrOnnWVGVblJAj-99" target="JSn8sYVrOnnWVGVblJAj-101" edge="1">
          <mxGeometry width="50" height="50" relative="1" as="geometry">
            <mxPoint x="470" y="150" as="sourcePoint" />
            <mxPoint x="390" y="100" as="targetPoint" />
          </mxGeometry>
        </mxCell>
        <mxCell id="JSn8sYVrOnnWVGVblJAj-84" value="" style="endArrow=none;html=1;rounded=0;" parent="1" edge="1">
          <mxGeometry width="50" height="50" relative="1" as="geometry">
            <mxPoint x="280" y="420" as="sourcePoint" />
            <mxPoint x="440" y="420" as="targetPoint" />
          </mxGeometry>
        </mxCell>
        <mxCell id="JSn8sYVrOnnWVGVblJAj-85" value="" style="endArrow=none;html=1;rounded=0;entryX=-0.021;entryY=1.03;entryDx=0;entryDy=0;entryPerimeter=0;" parent="1" target="JSn8sYVrOnnWVGVblJAj-92" edge="1">
          <mxGeometry width="50" height="50" relative="1" as="geometry">
            <mxPoint x="280" y="380" as="sourcePoint" />
            <mxPoint x="470" y="210" as="targetPoint" />
          </mxGeometry>
        </mxCell>
        <mxCell id="JSn8sYVrOnnWVGVblJAj-86" value="1" style="text;html=1;align=center;verticalAlign=middle;resizable=0;points=[];autosize=1;strokeColor=none;fillColor=none;" parent="1" vertex="1">
          <mxGeometry x="260" y="165" width="30" height="30" as="geometry" />
        </mxCell>
        <mxCell id="JSn8sYVrOnnWVGVblJAj-87" value="N" style="text;html=1;align=center;verticalAlign=middle;resizable=0;points=[];autosize=1;strokeColor=none;fillColor=none;" parent="1" vertex="1">
          <mxGeometry x="440" y="165" width="30" height="30" as="geometry" />
        </mxCell>
        <mxCell id="JSn8sYVrOnnWVGVblJAj-88" value="" style="endArrow=none;html=1;rounded=0;entryX=0;entryY=0.5;entryDx=0;entryDy=0;exitX=0.911;exitY=0.511;exitDx=0;exitDy=0;exitPerimeter=0;" parent="1" source="JSn8sYVrOnnWVGVblJAj-87" target="JSn8sYVrOnnWVGVblJAj-34" edge="1">
          <mxGeometry width="50" height="50" relative="1" as="geometry">
            <mxPoint x="405" y="240" as="sourcePoint" />
            <mxPoint x="455" y="190" as="targetPoint" />
          </mxGeometry>
        </mxCell>
        <mxCell id="JSn8sYVrOnnWVGVblJAj-89" value="" style="endArrow=none;html=1;rounded=0;entryX=0;entryY=0.5;entryDx=0;entryDy=0;exitX=0.911;exitY=0.511;exitDx=0;exitDy=0;exitPerimeter=0;" parent="1" edge="1">
          <mxGeometry width="50" height="50" relative="1" as="geometry">
            <mxPoint x="240" y="179.83" as="sourcePoint" />
            <mxPoint x="263" y="179.83" as="targetPoint" />
          </mxGeometry>
        </mxCell>
        <mxCell id="JSn8sYVrOnnWVGVblJAj-90" value="1" style="text;html=1;align=center;verticalAlign=middle;resizable=0;points=[];autosize=1;strokeColor=none;fillColor=none;" parent="1" vertex="1">
          <mxGeometry x="250" y="370" width="30" height="30" as="geometry" />
        </mxCell>
        <mxCell id="JSn8sYVrOnnWVGVblJAj-91" value="" style="endArrow=none;html=1;rounded=0;exitX=0.911;exitY=0.511;exitDx=0;exitDy=0;exitPerimeter=0;" parent="1" target="JSn8sYVrOnnWVGVblJAj-90" edge="1">
          <mxGeometry width="50" height="50" relative="1" as="geometry">
            <mxPoint x="240" y="409.52" as="sourcePoint" />
            <mxPoint x="263" y="409.52" as="targetPoint" />
          </mxGeometry>
        </mxCell>
        <mxCell id="JSn8sYVrOnnWVGVblJAj-92" value="N" style="text;html=1;align=center;verticalAlign=middle;resizable=0;points=[];autosize=1;strokeColor=none;fillColor=none;" parent="1" vertex="1">
          <mxGeometry x="440" y="205" width="30" height="30" as="geometry" />
        </mxCell>
        <mxCell id="JSn8sYVrOnnWVGVblJAj-94" value="" style="endArrow=none;html=1;rounded=0;entryX=0;entryY=1;entryDx=0;entryDy=0;exitX=0.979;exitY=0.165;exitDx=0;exitDy=0;exitPerimeter=0;" parent="1" source="JSn8sYVrOnnWVGVblJAj-92" target="JSn8sYVrOnnWVGVblJAj-34" edge="1">
          <mxGeometry width="50" height="50" relative="1" as="geometry">
            <mxPoint x="477" y="190" as="sourcePoint" />
            <mxPoint x="500" y="190" as="targetPoint" />
          </mxGeometry>
        </mxCell>
        <mxCell id="JSn8sYVrOnnWVGVblJAj-95" value="1" style="text;html=1;align=center;verticalAlign=middle;resizable=0;points=[];autosize=1;strokeColor=none;fillColor=none;" parent="1" vertex="1">
          <mxGeometry x="260" y="405" width="30" height="30" as="geometry" />
        </mxCell>
        <mxCell id="JSn8sYVrOnnWVGVblJAj-96" value="" style="endArrow=none;html=1;rounded=0;exitX=1;exitY=0.5;exitDx=0;exitDy=0;" parent="1" source="JSn8sYVrOnnWVGVblJAj-23" edge="1">
          <mxGeometry width="50" height="50" relative="1" as="geometry">
            <mxPoint x="250" y="419.52" as="sourcePoint" />
            <mxPoint x="270" y="420" as="targetPoint" />
          </mxGeometry>
        </mxCell>
        <mxCell id="JSn8sYVrOnnWVGVblJAj-97" value="N" style="text;html=1;align=center;verticalAlign=middle;resizable=0;points=[];autosize=1;strokeColor=none;fillColor=none;" parent="1" vertex="1">
          <mxGeometry x="440" y="405" width="30" height="30" as="geometry" />
        </mxCell>
        <mxCell id="JSn8sYVrOnnWVGVblJAj-98" value="" style="endArrow=none;html=1;rounded=0;" parent="1" edge="1">
          <mxGeometry width="50" height="50" relative="1" as="geometry">
            <mxPoint x="470" y="420" as="sourcePoint" />
            <mxPoint x="490" y="419.8" as="targetPoint" />
          </mxGeometry>
        </mxCell>
        <mxCell id="JSn8sYVrOnnWVGVblJAj-99" value="1" style="text;html=1;align=center;verticalAlign=middle;resizable=0;points=[];autosize=1;strokeColor=none;fillColor=none;" parent="1" vertex="1">
          <mxGeometry x="440" y="125" width="30" height="30" as="geometry" />
        </mxCell>
        <mxCell id="JSn8sYVrOnnWVGVblJAj-100" value="" style="endArrow=none;html=1;rounded=0;exitX=0;exitY=0;exitDx=0;exitDy=0;" parent="1" source="JSn8sYVrOnnWVGVblJAj-34" target="JSn8sYVrOnnWVGVblJAj-99" edge="1">
          <mxGeometry width="50" height="50" relative="1" as="geometry">
            <mxPoint x="490" y="150" as="sourcePoint" />
            <mxPoint x="500" y="140" as="targetPoint" />
          </mxGeometry>
        </mxCell>
        <mxCell id="JSn8sYVrOnnWVGVblJAj-101" value="N" style="text;html=1;align=center;verticalAlign=middle;resizable=0;points=[];autosize=1;strokeColor=none;fillColor=none;" parent="1" vertex="1">
          <mxGeometry x="360" y="80" width="30" height="30" as="geometry" />
        </mxCell>
        <mxCell id="JSn8sYVrOnnWVGVblJAj-102" value="" style="endArrow=none;html=1;rounded=0;" parent="1" source="JSn8sYVrOnnWVGVblJAj-101" edge="1">
          <mxGeometry width="50" height="50" relative="1" as="geometry">
            <mxPoint x="350" y="80" as="sourcePoint" />
            <mxPoint x="340" y="70" as="targetPoint" />
          </mxGeometry>
        </mxCell>
      </root>
    </mxGraphModel>
  </diagram>
</mxfile>
